Coordinates
version=1
nRows=5
nColumns=63
inDegrees=yes

Units are S.I. units (second, meters, Newtons, ...)
If the header above contains a line with 'inDegrees', this indicates whether rotational values are in degrees (yes) or radians (no).

endheader
time	pelvis_tilt	pelvis_list	pelvis_rotation	pelvis_tx	pelvis_ty	pelvis_tz	hip_flexion_r	hip_adduction_r	hip_rotation_r	knee_angle_r	knee_angle_r_beta	ankle_angle_r	subtalar_angle_r	mtp_angle_r	hip_flexion_l	hip_adduction_l	hip_rotation_l	knee_angle_l	knee_angle_l_beta	ankle_angle_l	subtalar_angle_l	mtp_angle_l	L5_S1_Flex_Ext	L5_S1_Lat_Bending	L5_S1_axial_rotation	L4_L5_Flex_Ext	L4_L5_Lat_Bending	L4_L5_axial_rotation	L3_L4_Flex_Ext	L3_L4_Lat_Bending	L3_L4_axial_rotation	L2_L3_Flex_Ext	L2_L3_Lat_Bending	L2_L3_axial_rotation	L1_L2_Flex_Ext	L1_L2_Lat_Bending	L1_L2_axial_rotation	L1_T12_Flex_Ext	L1_T12_Lat_Bending	L1_T12_axial_rotation	Abs_r3	Abs_r2	Abs_r1	Abs_t1	Abs_t2	neck_flexion	neck_bending	neck_rotation	arm_flex_r	arm_add_r	arm_rot_r	elbow_flex_r	pro_sup_r	wrist_flex_r	wrist_dev_r	arm_flex_l	arm_add_l	arm_rot_l	elbow_flex_l	pro_sup_l	wrist_flex_l	wrist_dev_l
      3.85365854	      0.78705260	      4.45981876	     78.23102087	      0.30073261	      0.60371789	      0.59531309	    -10.60162411	      2.07805793	     -4.58395653	      4.76312567	      0.08313223	     31.66216014	     -0.55664029	      0.00000000	    -12.13751724	     -3.15911058	     18.32606483	      1.06882015	      0.01865443	     26.93425024	     -8.81821728	      0.00000000	     -0.02977691	      0.15227165	     -1.13719437	     -0.05529870	      0.20252130	     -1.20826902	     -0.04892049	      0.37023329	     -1.20826902	     -0.03403203	      0.37023329	     -0.99504507	     -0.02765084	      0.31051235	     -0.92397042	     -0.01701453	      0.23586879	     -0.85289578	     -0.21269351	      1.72252738	     -6.32473392	      0.00000000	      0.00000000	     12.10736097	      3.84882773	      1.85549464	     40.29731220	    -38.56274350	    -69.28758491	    139.56035269	     51.21936922	     27.78363025	     16.63057862	     27.65691000	    -53.55994614	    -69.05838986	    149.03313346	     88.66745222	      3.93585126	     -0.68351227
      3.87804878	      0.24885864	      4.73766111	     78.38586532	      0.30281806	      0.60330506	      0.59540157	    -10.81442673	      1.62532561	     -4.60876553	      4.76337910	      0.08313665	     32.02048768	     -0.82284697	      0.00000000	    -12.31238400	     -2.72100004	     18.37656687	      1.05681425	      0.01844489	     27.02396580	     -8.51671415	      0.00000000	     -0.04684396	      0.08291631	     -1.29742629	     -0.08699392	      0.11027869	     -1.37851543	     -0.07695994	      0.20160271	     -1.37851543	     -0.05353796	      0.20160271	     -1.13524800	     -0.04349930	      0.16908293	     -1.05415886	     -0.02676664	      0.12843736	     -0.97306972	     -0.33460171	      0.93796585	     -7.21589579	      0.00000000	      0.00000000	     12.18157644	      3.89110923	      3.04229535	     39.46241993	    -37.21724962	    -69.40614031	    144.74734141	     47.10917685	     29.08594519	     18.28119192	     25.02674234	    -54.09747658	    -72.19837036	    149.74643136	     88.87423150	     -0.39378477	    -15.37701233
      3.90243902	     -0.43824730	      5.22162246	     78.78587734	      0.30505470	      0.60282891	      0.59586981	    -11.22494285	      1.06991221	     -4.68677132	      4.74341014	      0.08278812	     32.39463311	     -1.10190170	      0.00000000	    -12.61922582	     -2.16833356	     18.68996659	      1.04496246	      0.01823804	     26.95328443	     -8.25680369	      0.00000000	     -0.08517749	     -0.03007903	     -1.37048635	     -0.15818312	     -0.04000511	     -1.45614174	     -0.13993810	     -0.07313416	     -1.45614174	     -0.09734936	     -0.07313416	     -1.19917555	     -0.07909582	     -0.06133716	     -1.11352016	     -0.04867042	     -0.04659242	     -1.02786476	     -0.60841431	     -0.34026002	     -7.62223392	      0.00000000	      0.00000000	     12.09476110	      4.18840013	      2.78558850	     38.25689365	    -36.24191281	    -70.30115992	    148.80935151	     45.62088647	     30.07896743	     15.85117592	     25.40397538	    -54.69548152	    -73.78191274	    149.87258525	     88.70094109	      1.03436627	    -22.61098520
      3.92682927	     -0.67650331	      5.38477479	     78.96793308	      0.30598329	      0.60249063	      0.59601434	    -11.38537354	      0.94158014	     -4.08505821	      4.69909647	      0.08201471	     32.40008233	     -1.97204924	      0.00000000	    -12.69745597	     -2.00822150	     18.27250750	      1.08472868	      0.01893209	     27.03254341	     -7.34023372	      0.00000000	     -0.09836806	     -0.05277436	     -1.70548690	     -0.18267933	     -0.07018990	     -1.81207983	     -0.16160889	     -0.12831558	     -1.81207983	     -0.11242486	     -0.12831558	     -1.49230104	     -0.09134458	     -0.10761748	     -1.38570811	     -0.05620751	     -0.08174749	     -1.27911518	     -0.70263324	     -0.59699413	     -9.48540649	      0.00000000	      0.00000000	     11.93127722	      4.30818613	      4.47813609	     38.88569458	    -34.60877589	    -65.70064065	    149.47634998	     49.82529902	     33.11650977	      3.19259773	     22.94847722	    -55.71093070	    -83.75219473	    149.90271251	     86.02393156	     12.72613979	    -23.13405008
      3.95121951	     -0.30652265	      5.28791651	     78.56617401	      0.30508797	      0.60236911	      0.59546959	    -11.32542533	      1.17335458	     -3.80838999	      4.75786955	      0.08304049	     32.41564683	     -1.56047142	      0.00000000	    -12.75178428	     -2.24342364	     17.59550810	      1.05579296	      0.01842706	     27.11051465	     -6.92948434	      0.00000000	     -0.09645027	      0.02801578	     -1.87381013	     -0.17911780	      0.03726098	     -1.99092326	     -0.15845815	      0.06811756	     -1.99092326	     -0.11023302	      0.06811756	     -1.63958387	     -0.08956372	      0.05712977	     -1.52247073	     -0.05511169	      0.04339644	     -1.40535760	     -0.68893466	      0.31692007	    -10.42156981	      0.00000000	      0.00000000	     11.70847404	      4.13043028	      5.76074239	     38.77706316	    -33.18744830	    -59.74858653	    149.70549384	     70.43671548	     14.76727027	    -18.40749475	     20.28393741	    -55.98354144	    -90.44398245	    149.89725341	     80.54170709	     19.68690591	    -21.70010307
